<?xml version="1.0" encoding="UTF-8" standalone="no"?>
<svg
   xmlns:dc="http://purl.org/dc/elements/1.1/"
   xmlns:cc="http://creativecommons.org/ns#"
   xmlns:rdf="http://www.w3.org/1999/02/22-rdf-syntax-ns#"
   xmlns:svg="http://www.w3.org/2000/svg"
   xmlns="http://www.w3.org/2000/svg"
   xmlns:sodipodi="http://sodipodi.sourceforge.net/DTD/sodipodi-0.dtd"
   xmlns:inkscape="http://www.inkscape.org/namespaces/inkscape"
   version="1.1"
   x="0px"
   y="0px"
   viewBox="0 0 99.984467 92.664932"
   xml:space="preserve"
   id="svg8"
   sodipodi:docname="noun_Hammer_533174.svg"
   width="99.984467"
   height="92.664932"
   inkscape:version="0.92.3 (2405546, 2018-03-11)"><metadata
     id="metadata14"><rdf:RDF><cc:Work
         rdf:about=""><dc:format>image/svg+xml</dc:format><dc:type
           rdf:resource="http://purl.org/dc/dcmitype/StillImage" /><dc:title></dc:title></cc:Work></rdf:RDF></metadata><defs
     id="defs12" /><sodipodi:namedview
	 pagecolor="#ffffff"
     bordercolor="#666666"
     borderopacity="1"
     objecttolerance="10"
     gridtolerance="10"
     guidetolerance="10"
     inkscape:pageopacity="0"
     inkscape:pageshadow="2"
     inkscape:window-width="2560"
     inkscape:window-height="1360"
     id="namedview10"
     showgrid="false"
     fit-margin-top="5"
     fit-margin-right="5"
     fit-margin-bottom="5"
     fit-margin-left="5"
     inkscape:zoom="5.3400704"
     inkscape:cx="24.055277"
     inkscape:cy="52.870528"
     inkscape:window-x="2869"
     inkscape:window-y="-11"
     inkscape:window-maximized="1"
     inkscape:current-layer="svg8" /><path
     d="m 94.364295,36.100635 c -0.4,-0.5 -2.9,-2.8 -4.4,-4.4 -1.3,-1.3 -3.5,-1.3 -5,-1.2 -1,0.1 -3.9,-1 -4.2,-3 -0.2,-1.5 -0.1,-3.8 -1,-5.1 -0.9,-1.3 -6.3,-9.2 -19.2,-15.0000002 -12.6,-5.7 -22.6,0.5 -23.3,0.8 -0.8,0.4 -0.7,1.3 -0.4,1.8000002 0.3,0.5 0.8,0.9 2,0.5 2.8,-0.9000002 10.1,-1.4000002 15.4,4.3 5.3,5.6 2.7,13 2.1,14.3 -0.2,0.4 -1,1.3 -1.9,2.3 -2.1,-0.7 -4.5,-0.3 -6.1,1.3 l -41.7000002,40.1 c -2.3,2.3 -2.2,6.2 0.2,8.6 l 4.4000002,4.4 c 2.4,2.4 6.3,2.5 8.6,0.2 l 40.1,-41.9 c 1.6,-1.6 2,-3.8 1.4,-5.9 0.5,-0.5 0.9,-0.9 1.2,-1.2 0.9,-1 3.9,-3.4 8.6,-3.1 5,0.3 6.1,4.7 5.4,6.2 -0.5,1.2 -0.4,1.5 0.4,2.7 0.8,1.2 4.2,5 5.1,5.7 0.9,0.7 1.8,0.7 2.5,0.2 0.6,-0.5 9.1,-9.2 10,-10.1 0.8,-0.9 0.3,-2 -0.2,-2.5 z"
     id="path2"
     inkscape:connector-curvature="0" /></svg>