<?xml version="1.0" encoding="UTF-8" standalone="no"?>
<svg
   xmlns:dc="http://purl.org/dc/elements/1.1/"
   xmlns:cc="http://creativecommons.org/ns#"
   xmlns:rdf="http://www.w3.org/1999/02/22-rdf-syntax-ns#"
   xmlns:svg="http://www.w3.org/2000/svg"
   xmlns="http://www.w3.org/2000/svg"
   xmlns:sodipodi="http://sodipodi.sourceforge.net/DTD/sodipodi-0.dtd"
   xmlns:inkscape="http://www.inkscape.org/namespaces/inkscape"
   version="1.1"
   x="0px"
   y="0px"
   viewBox="0 0 100 100"
   enable-background="new 0 0 100 100"
   xml:space="preserve"
   id="svg4598"
   sodipodi:docname="management.svg"
   width="100"
   height="100"
   inkscape:export-filename="C:\Users\egger\Workspace\htl-utils\assets\management.png"
   inkscape:export-xdpi="30.719999"
   inkscape:export-ydpi="30.719999"
   inkscape:version="0.92.4 (5da689c313, 2019-01-14)"><metadata
     id="metadata4604"><rdf:RDF><cc:Work
         rdf:about=""><dc:format>image/svg+xml</dc:format><dc:type
           rdf:resource="http://purl.org/dc/dcmitype/StillImage" /><dc:title></dc:title></cc:Work></rdf:RDF></metadata><defs
     id="defs4602" /><sodipodi:namedview
     pagecolor="#ffffff"
     bordercolor="#666666"
     borderopacity="1"
     objecttolerance="10"
     gridtolerance="10"
     guidetolerance="10"
     inkscape:pageopacity="0"
     inkscape:pageshadow="2"
     inkscape:window-width="1920"
     inkscape:window-height="1027"
     id="namedview4600"
     showgrid="false"
     fit-margin-top="2"
     fit-margin-left="2"
     fit-margin-right="2"
     fit-margin-bottom="2"
     inkscape:zoom="3.776"
     inkscape:cx="75.583956"
     inkscape:cy="37.876546"
     inkscape:window-x="1432"
     inkscape:window-y="-8"
     inkscape:window-maximized="1"
     inkscape:current-layer="svg4598" /><g
     id="g4592"
     transform="translate(0.00286405,0.0213941)"><path
       d="m 10.7,83.5 2.1,2.1 c 0.7,0.7 1.8,0.7 2.5,0 l 1.9,-1.9 c 1.8,1.2 3.9,2.1 5.9,2.5 v 2.7 c 0,1 0.8,1.8 1.8,1.8 h 3 c 1,0 1.8,-0.8 1.8,-1.8 v -2.7 c 2.1,-0.4 4.1,-1.2 6,-2.4 l 1.9,1.9 c 0.7,0.7 1.8,0.7 2.5,0 l 2.1,-2.1 c 0.7,-0.7 0.7,-1.8 0,-2.5 l -1.9,-1.9 c 1.2,-1.8 2.1,-3.9 2.5,-5.9 h 2.7 c 1,0 1.8,-0.8 1.8,-1.8 v -3 c 0,-1 -0.8,-1.8 -1.8,-1.8 h -2.7 c -0.4,-2.1 -1.2,-4.1 -2.4,-6 l 1.9,-1.9 C 43,58.1 43,57 42.3,56.3 l -2.1,-2.1 c -0.7,-0.7 -1.8,-0.7 -2.5,0 l -1.9,1.9 C 34,54.9 31.9,54 29.9,53.6 v -2.7 c 0,-1 -0.8,-1.8 -1.8,-1.8 h -3 c -1,0 -1.8,0.8 -1.8,1.8 v 2.7 c -2.1,0.4 -4.1,1.2 -6,2.4 l -1.9,-1.9 c -0.7,-0.7 -1.8,-0.7 -2.5,0 l -2.1,2.1 c -0.7,0.7 -0.7,1.8 0,2.5 l 1.9,1.9 c -1.2,1.8 -2.1,3.9 -2.5,5.9 H 7.5 c -1,0 -1.8,0.8 -1.8,1.8 v 3 c 0,1 0.8,1.8 1.8,1.8 h 2.7 c 0.4,2.1 1.2,4.1 2.4,6 L 10.7,81 c -0.7,0.7 -0.7,1.8 0,2.5 z M 21,64.4 c 3.1,-3.1 8.1,-3 11.2,0.1 3.1,3.1 3,8.1 -0.1,11.2 -3.1,3.1 -8.1,3 -11.2,-0.1 -3.1,-3.2 -3,-8.2 0.1,-11.2 z m 30.7,12.9 -1.8,-0.5 c -0.7,-0.2 -1.3,0.2 -1.5,0.9 l -0.5,2 c -0.2,0.7 0.2,1.3 0.9,1.5 l 1.8,0.5 c -0.1,1.5 0.1,3 0.6,4.4 L 49.5,87 c -0.6,0.3 -0.8,1.1 -0.4,1.7 l 1,1.8 c 0.3,0.6 1.1,0.8 1.7,0.4 L 53.4,90 c 1,1.1 2.2,2 3.6,2.7 l -0.5,1.8 c -0.2,0.7 0.2,1.3 0.9,1.5 l 2,0.5 c 0.7,0.2 1.3,-0.2 1.5,-0.9 l 0.5,-1.8 c 1.5,0.1 3,-0.1 4.4,-0.6 l 0.9,1.6 c 0.3,0.6 1.1,0.8 1.7,0.4 l 1.8,-1 c 0.6,-0.3 0.8,-1.1 0.4,-1.7 L 69.7,91 c 1.1,-1 2,-2.2 2.7,-3.6 l 1.8,0.5 c 0.7,0.2 1.3,-0.2 1.5,-0.9 l 0.5,-2 C 76.4,84.3 76,83.7 75.3,83.5 L 73.5,83 c 0.1,-1.5 -0.1,-3 -0.6,-4.4 l 1.6,-0.9 c 0.6,-0.3 0.8,-1.1 0.4,-1.7 l -1,-1.8 c -0.3,-0.6 -1.1,-0.8 -1.7,-0.4 l -1.6,0.9 c -1,-1.1 -2.2,-2 -3.6,-2.7 l 0.5,-1.8 c 0.2,-0.7 -0.2,-1.3 -0.9,-1.5 l -2,-0.5 c -0.7,-0.2 -1.3,0.2 -1.5,0.9 l -0.5,1.8 c -1.5,-0.1 -3,0.1 -4.4,0.6 L 57.3,69.9 C 57,69.3 56.2,69.1 55.6,69.5 l -1.8,1 c -0.6,0.3 -0.8,1.1 -0.4,1.7 l 0.9,1.6 c -1,0.9 -1.9,2.1 -2.6,3.5 z m 5,3.7 c 0.8,-2.9 3.8,-4.7 6.7,-3.9 2.9,0.8 4.7,3.8 3.9,6.7 -0.8,2.9 -3.8,4.7 -6.7,3.9 C 57.7,86.9 56,83.9 56.7,81 Z M 91.9,48.7 94.1,43.4 C 94.5,42.3 94,41.1 93,40.7 l -4.4,-1.8 c 0.6,-3.2 0.7,-6.6 0,-9.9 L 93,27.2 c 1.1,-0.4 1.6,-1.7 1.1,-2.7 l -2.2,-5.3 c -0.4,-1.1 -1.7,-1.6 -2.7,-1.1 l -4.4,1.8 c -1.9,-2.8 -4.3,-5.2 -7,-7 L 79.6,8.5 C 80,7.4 79.5,6.2 78.5,5.8 L 73.2,3.6 C 72.1,3.2 70.9,3.7 70.5,4.7 L 68.7,9.1 C 65.5,8.5 62.1,8.4 58.8,9.1 L 57,4.7 C 56.6,3.6 55.3,3.1 54.3,3.6 L 49,5.8 c -1.1,0.4 -1.6,1.7 -1.1,2.7 l 1.8,4.4 c -2.8,1.9 -5.2,4.3 -7,7 l -4.4,-1.8 c -1.1,-0.4 -2.3,0.1 -2.7,1.1 l -2.2,5.3 c -0.4,1.1 0.1,2.3 1.1,2.7 l 4.4,1.8 c -0.6,3.2 -0.7,6.6 0,9.9 l -4.4,1.8 c -1.1,0.4 -1.6,1.7 -1.1,2.7 l 2.2,5.3 c 0.4,1.1 1.7,1.6 2.7,1.1 L 42.7,48 c 1.9,2.8 4.3,5.2 7,7 l -1.8,4.4 c -0.4,1.1 0.1,2.3 1.1,2.7 l 5.3,2.2 c 1.1,0.4 2.3,-0.1 2.7,-1.1 l 1.8,-4.4 c 3.2,0.6 6.6,0.7 9.9,0 l 1.8,4.4 c 0.4,1.1 1.7,1.6 2.7,1.1 l 5.3,-2.2 c 1.1,-0.4 1.6,-1.7 1.1,-2.7 L 77.8,55 c 2.8,-1.9 5.2,-4.3 7,-7 l 4.4,1.8 c 1,0.5 2.3,0 2.7,-1.1 z m -21.2,2.2 c -9.3,3.9 -20.1,-0.6 -24,-9.9 -3.9,-9.3 0.6,-20.1 9.9,-24 9.3,-3.9 20.1,0.6 24,9.9 3.9,9.4 -0.6,20.1 -9.9,24 z M 68.5,38 c 0.7,0.3 3.9,2 7.1,4.4 -2.4,3.4 -6.1,5.7 -10.4,6.2 L 64.2,44 C 66.7,40.6 64,40.4 63.6,40.4 v 0 0 c -0.5,0 -3.1,0.2 -0.6,3.6 l -1,4.6 c -4.3,-0.5 -8,-2.8 -10.4,-6.2 3.3,-2.5 6.4,-4.1 7.1,-4.4 0.1,0 0.1,-0.1 0.1,-0.2 v -1.1 -1 c -0.5,-0.9 -0.8,-1.9 -1,-2.8 -0.3,0 -0.7,-0.5 -1.2,-2.1 -0.6,-2.2 0,-2.5 0.6,-2.5 0,0 -1.5,-5.2 2.2,-7.4 0,0 -0.6,-0.5 -0.6,-1.3 0,0 3.6,0.4 5.3,0 1.7,-0.4 3.6,1 3.9,2.3 0,0 3.7,-0.3 2.1,6.3 0,0 0,0.1 -0.1,0.4 h 0.1 c 0.4,0.1 0.7,0.7 0.2,2.4 -0.6,2.1 -1.1,2.2 -1.5,2 -0.1,0.7 -0.3,1.5 -0.7,2.3 0,0.5 0,0.9 0,1.3 0,0.5 0,0.9 0,1.1 0.3,0.1 0.3,0.2 0.4,0.3 z"
       id="path4590"
       inkscape:connector-curvature="0" /></g></svg>