<?xml version="1.0" encoding="utf-8"?>
<!-- Generator: Adobe Illustrator 16.0.0, SVG Export Plug-In . SVG Version: 6.00 Build 0)  -->
<!DOCTYPE svg PUBLIC "-//W3C//DTD SVG 1.1//EN" "http://www.w3.org/Graphics/SVG/1.1/DTD/svg11.dtd">
<svg version="1.1" xmlns="http://www.w3.org/2000/svg" xmlns:xlink="http://www.w3.org/1999/xlink" x="0px" y="0px" width="842px"
	 height="595.22px" viewBox="0 0 842 595.22" enable-background="new 0 0 842 595.22" xml:space="preserve">
<g id="Ebene_5" display="none">
	<rect x="74.667" y="99.667" display="inline" fill="#FF1DA4" width="710.667" height="378.667"/>
</g>
<g id="VÖCKLABRUCK">
	<polyline fill="#9D9D9C" points="256.314,174.762 260.786,174.762 265.257,195.827 265.331,195.827 270.061,174.762 
		274.533,174.762 267.88,201.149 262.522,201.149 256.314,174.762 	"/>
	<path fill="#9D9D9C" d="M289.573,172.544v-3.991h3.549v3.991H289.573z M292.79,187.844c0-8.869-1.996-10.422-4.51-10.422
		c-2.513,0-4.508,1.553-4.508,10.422c0,9.091,1.995,10.643,4.508,10.643C290.793,198.487,292.79,196.936,292.79,187.844
		 M283.439,172.544v-3.991h3.549v3.991H283.439z M279.557,187.956c0-9.425,2.663-13.711,8.722-13.711
		c6.062,0,8.723,4.286,8.723,13.711c0,9.422-2.661,13.71-8.723,13.71C282.22,201.667,279.557,197.378,279.557,187.956"/>
	<path fill="#9D9D9C" d="M320.653,191.688v0.555c0,4.767-1.921,9.424-8.129,9.424c-6.653,0-8.723-4.288-8.723-13.711
		c0-9.425,2.07-13.712,8.759-13.712c7.502,0,7.945,5.544,7.945,8.278v0.481h-4.212v-0.444c0-2.439-0.74-5.247-3.77-5.137
		c-3.105,0-4.508,1.922-4.508,10.422c0,8.5,1.403,10.643,4.508,10.643c3.51,0,3.917-3.917,3.917-6.357v-0.442H320.653"/>
	<polyline fill="#9D9D9C" points="327.303,174.762 331.518,174.762 331.518,186.255 331.591,186.255 339.573,174.762 
		344.193,174.762 336.579,185.885 345.006,201.149 340.24,201.149 333.846,189.286 331.518,192.611 331.518,201.149 
		327.303,201.149 327.303,174.762 	"/>
	<polyline fill="#9D9D9C" points="349.699,174.762 353.912,174.762 353.912,197.601 364.112,197.601 364.112,201.149 
		349.699,201.149 349.699,174.762 	"/>
	<path fill="#9D9D9C" d="M380.889,191.317l-3.031-13.008h-0.075l-3.143,13.008H380.889 M375.272,174.762h5.396l6.948,26.387h-4.398
		l-1.627-6.468h-7.722l-1.702,6.468h-4.396L375.272,174.762z"/>
	<path fill="#9D9D9C" d="M401.547,197.97c2.513,0,3.88-1.625,3.88-4.656c0-2.845-1.7-4.472-4.139-4.472h-3.917v9.128H401.547
		 M400.697,185.885c2.549,0,3.88-1.7,3.88-4.176c0-3.141-1.886-3.769-4.25-3.769h-2.956v7.945H400.697z M393.157,174.762h8.538
		c3.917,0,7.096,1.737,7.096,6.394c0,3.215-1.258,5.173-3.881,5.986v0.074c2.883,0.518,4.73,2.255,4.73,6.727
		c0,4.397-3.179,7.206-8.129,7.206h-8.354V174.762z"/>
	<path fill="#9D9D9C" d="M424.273,186.515c2.699,0,4.213-1.627,4.213-4.287c0-2.81-1.219-4.287-3.991-4.287h-3.585v8.574H424.273
		 M416.697,174.762h9.314c3.696,0,6.688,1.848,6.688,6.8c0,3.399-1.515,6.023-4.397,6.466v0.075c2.624,0.259,3.991,1.699,4.14,5.396
		c0.037,1.699,0.072,3.77,0.146,5.358c0.075,1.293,0.703,1.921,1.257,2.292h-4.767c-0.406-0.481-0.592-1.294-0.703-2.328
		c-0.146-1.589-0.109-3.068-0.186-4.99c-0.071-2.883-0.96-4.14-3.841-4.14h-3.438v11.458h-4.213V174.762z"/>
	<path fill="#9D9D9C" d="M444.117,174.762v18.922c0,3.325,1.33,4.804,3.883,4.804c2.512,0,3.842-1.479,3.842-4.804v-18.922h4.213
		v18.589c0,6.098-3.031,8.315-8.055,8.315c-5.064,0-8.094-2.218-8.094-8.315v-18.589H444.117"/>
	<path fill="#9D9D9C" d="M480.001,191.688v0.555c0,4.767-1.921,9.424-8.132,9.424c-6.652,0-8.721-4.288-8.721-13.711
		c0-9.425,2.068-13.712,8.759-13.712c7.501,0,7.947,5.544,7.947,8.278v0.481h-4.216v-0.444c0-2.439-0.737-5.247-3.77-5.137
		c-3.104,0-4.508,1.922-4.508,10.422c0,8.5,1.404,10.643,4.508,10.643c3.513,0,3.919-3.917,3.919-6.357v-0.442H480.001"/>
	<polyline fill="#9D9D9C" points="486.651,174.762 490.864,174.762 490.864,186.255 490.938,186.255 498.923,174.762 
		503.542,174.762 495.928,185.885 504.354,201.149 499.588,201.149 493.194,189.286 490.864,192.611 490.864,201.149 
		486.651,201.149 486.651,174.762 	"/>
</g>
<g id="VHTL">
	<polygon fill="none" points="634.966,262.791 577.996,262.791 577.996,379.202 748.465,379.202 748.501,337.521 634.966,337.521 	
		"/>
	<polygon fill="#134883" points="634.966,262.791 577.996,262.791 577.996,379.202 748.465,379.202 748.501,337.521 
		634.966,337.521 	"/>
	<polygon fill="#B2B2B2" points="256.601,215.682 192.682,379.201 278.095,379.201 341.994,215.682 	"/>
	<polygon fill="none" points="256.601,215.682 192.682,379.201 278.095,379.201 341.994,215.682 	"/>
	<polygon fill="#134883" points="191.421,162.539 106.229,162.539 187.589,377.022 232.233,262.811 	"/>
	<polygon fill="none" points="256.601,215.682 192.682,379.201 278.095,379.201 296.438,332.26 296.438,215.682 	"/>
	<polygon fill="none" points="451.107,257.371 514.87,257.371 514.87,379.201 571.845,379.201 571.845,257.371 635.112,257.371 
		635.112,215.682 451.107,215.682 	"/>
	<polygon fill="none" points="635.112,215.682 451.107,215.682 451.107,257.371 514.87,257.371 514.87,379.201 571.845,379.201 
		571.845,257.371 635.112,257.371 	"/>
	<polygon fill="none" points="635.112,215.682 451.107,215.682 451.107,257.371 514.87,257.371 514.87,379.201 571.845,379.201 
		571.845,257.371 635.112,257.371 	"/>
	<polygon fill="#134883" points="451.107,257.371 514.87,257.371 514.87,379.201 571.845,379.201 571.845,257.371 635.112,257.371 
		635.112,215.682 451.107,215.682 	"/>
	<polygon fill="#134883" points="451.581,274.141 358.031,274.141 358.031,215.682 347.938,215.682 301.052,335.663 
		301.052,379.201 358.031,379.201 358.031,319.902 451.581,319.902 451.581,379.201 508.565,379.201 508.565,262.789 
		451.581,262.789 	"/>
</g>
<g id="Textebene" display="none">
	
		<text transform="matrix(1.0625 0 0 1 187.3696 423.3506)" display="inline" font-family="'HelveticaNeue-Condensed'" font-size="41.4764" letter-spacing="3.765">education on a higher level</text>
	
		<text transform="matrix(1 0 0 1 254.5669 201.8765)" display="inline" font-family="'HelveticaNeue-Condensed'" font-size="38" letter-spacing="3">VÖCKLABRUCK</text>
	<text transform="matrix(1 0 0 1 95.2544 54.6328)" display="inline"><tspan x="0" y="0" font-family="'HelveticaNeue-Condensed'" font-size="38" letter-spacing="3">Helvetica Condensed</tspan><tspan x="0" y="45.6" font-family="'HelveticaNeue-Condensed'" font-size="38" letter-spacing="3">Erweiterter Buchstabenabstand</tspan></text>
</g>
<g id="education_on_a_higher_level">
	<path fill="#9D9D9C" d="M193.063,401.823h7.926v-1.205c0-3.624-1.29-5.433-3.858-5.433c-1.413,0-2.477,0.646-3.194,1.951
		c-0.584,1.078-0.874,2.36-0.874,3.857V401.823 M204.639,404.56h-11.694c0,2.545,0.176,4.398,0.537,5.559
		c0.608,1.991,1.854,2.983,3.734,2.983c1.438,0,2.484-0.642,3.15-1.947c0.412-0.889,0.624-1.95,0.624-3.191h3.482
		c0,1.74-0.483,3.343-1.452,4.812c-1.355,2.045-3.361,3.068-6.016,3.068c-2.681,0-4.646-0.956-5.887-2.861
		c-1.219-1.827-1.827-4.676-1.827-8.547c0-7.992,2.641-11.989,7.926-11.989c3.011,0,5.1,1.189,6.265,3.569
		c0.771,1.602,1.158,3.982,1.158,7.13V404.56z"/>
	<path fill="#9D9D9C" d="M217.127,404.146c0,2.873,0.275,4.991,0.825,6.348c0.643,1.575,1.72,2.365,3.24,2.365
		c1.768,0,2.996-0.818,3.691-2.454c0.526-1.297,0.786-3.386,0.786-6.259c0-5.806-1.491-8.712-4.477-8.712
		c-1.52,0-2.597,0.786-3.24,2.359C217.402,399.153,217.127,401.269,217.127,404.146 M228.947,385.644v29.616h-3.316v-2.742h-0.169
		c-0.249,0.891-0.794,1.65-1.647,2.288c-0.934,0.691-1.977,1.037-3.132,1.037c-4.804,0-7.21-3.903-7.21-11.697
		c0-7.8,2.356-11.701,7.062-11.701c1.03,0,2.011,0.284,2.941,0.852c0.939,0.566,1.602,1.323,1.986,2.26v-9.912H228.947z"/>
	<path fill="#9D9D9C" d="M253.917,393.027v22.232h-3.314v-2.612h-0.085c-0.444,0.998-1.169,1.777-2.181,2.343
		c-1.007,0.568-2.08,0.853-3.213,0.853c-2.542,0-4.244-0.847-5.1-2.53c-0.498-0.969-0.749-2.478-0.749-4.523v-15.762h3.483v15.348
		c0,2.985,1.093,4.483,3.282,4.483c1.101,0,2.073-0.351,2.901-1.039c0.996-0.829,1.492-1.979,1.492-3.444v-15.348H253.917"/>
	<path fill="#9D9D9C" d="M278.353,399.788h-3.485c0-1.248-0.25-2.276-0.748-3.111c-0.634-0.998-1.563-1.491-2.776-1.491
		c-1.329,0-2.323,0.508-2.986,1.532c-0.917,1.44-1.372,3.994-1.372,7.679c0,2.404,0.179,4.213,0.54,5.431
		c0.634,2.186,1.867,3.274,3.691,3.274c2.434,0,3.652-1.849,3.652-5.558h3.485c0,2.135-0.529,3.953-1.581,5.477
		c-1.296,1.883-3.205,2.822-5.719,2.822c-2.687,0-4.65-0.955-5.895-2.861c-1.217-1.827-1.821-4.676-1.821-8.547
		c0-7.992,2.638-11.989,7.92-11.989c2.653,0,4.591,0.901,5.808,2.694C277.919,396.415,278.353,397.962,278.353,399.788"/>
	<path fill="#9D9D9C" d="M297.971,408.87v-5.726c-0.493,0.528-1.449,1.011-2.858,1.453c-1.663,0.527-2.685,0.915-3.074,1.163
		c-1.13,0.692-1.699,1.867-1.699,3.528c0,2.544,1.05,3.813,3.152,3.813c1.161,0,2.197-0.422,3.113-1.269
		C297.515,410.996,297.971,410.008,297.971,408.87 M290.71,399.748h-3.479c0-2.544,0.586-4.398,1.765-5.558
		c1.17-1.163,3.07-1.746,5.703-1.746c2.927,0,4.906,0.779,5.927,2.336c0.554,0.859,0.832,2.22,0.832,4.081v12.454
		c0,1.19,0.357,1.786,1.076,1.786c0.364,0,0.638-0.095,0.829-0.287v2.526c-0.829,0.141-1.503,0.209-2.028,0.209
		c-0.942,0-1.605-0.122-1.994-0.379c-0.692-0.392-1.08-1.23-1.162-2.524h-0.081c-0.554,0.969-1.324,1.741-2.3,2.325
		c-0.989,0.578-2.003,0.871-3.051,0.871c-4.039,0-6.054-2.159-6.054-6.47c0-3.265,1.389-5.314,4.187-6.141l4.686-1.409
		c1.163-0.363,1.893-0.79,2.201-1.289c0.221-0.33,0.332-1.021,0.332-2.074c0-2.181-1.188-3.274-3.567-3.274
		c-2.545,0-3.821,1.449-3.821,4.354V399.748z"/>
	<path fill="#9D9D9C" d="M313.029,393.027v-6.475h3.484v6.475h3.862v2.736h-3.862v14.308c0,0.913,0.158,1.56,0.477,1.932
		c0.321,0.376,0.917,0.562,1.803,0.562c0.276,0,0.794-0.057,1.534-0.167v2.899c-0.908,0.171-1.848,0.252-2.819,0.252
		c-1.713,0-2.916-0.372-3.608-1.12c-0.581-0.639-0.87-1.732-0.87-3.282v-15.383h-3.237v-2.736H313.029"/>
	<path fill="#9D9D9C" d="M328.749,415.26v-22.231h3.484v22.231H328.749z M328.749,389.625v-3.981h3.484v3.981H328.749z"/>
	<path fill="#9D9D9C" d="M349.656,413.102c2.958,0,4.439-2.982,4.439-8.957c0-2.793-0.274-4.897-0.831-6.303
		c-0.691-1.771-1.895-2.656-3.608-2.656c-2.85,0-4.274,2.987-4.274,8.959C345.382,410.119,346.807,413.102,349.656,413.102
		 M341.737,404.145c0-7.799,2.668-11.7,8.006-11.7c5.329,0,7.999,3.901,7.999,11.7c0,7.795-2.67,11.698-7.999,11.698
		C344.405,415.843,341.737,411.939,341.737,404.145"/>
	<path fill="#9D9D9C" d="M367.038,415.26v-22.231h3.321v2.612h0.083c0.442-0.998,1.184-1.782,2.237-2.364
		c0.964-0.552,2.02-0.831,3.154-0.831c2.54,0,4.246,0.845,5.102,2.531c0.496,0.97,0.749,2.477,0.749,4.521v15.763h-3.488v-15.345
		c0-2.991-1.092-4.481-3.276-4.481c-1.105,0-2.072,0.347-2.903,1.037c-0.998,0.829-1.493,1.976-1.493,3.444v15.345H367.038"/>
	<path fill="#9D9D9C" d="M414.659,413.102c2.956,0,4.438-2.982,4.438-8.957c0-2.793-0.278-4.897-0.832-6.303
		c-0.688-1.771-1.891-2.656-3.606-2.656c-2.851,0-4.275,2.987-4.275,8.959C410.383,410.119,411.808,413.102,414.659,413.102
		 M406.735,404.145c0-7.799,2.672-11.7,8.008-11.7c5.335,0,8.003,3.901,8.003,11.7c0,7.795-2.668,11.698-8.003,11.698
		C409.408,415.843,406.735,411.939,406.735,404.145"/>
	<path fill="#9D9D9C" d="M432.039,415.26v-22.231h3.315v2.612h0.085c0.441-0.998,1.188-1.782,2.24-2.364
		c0.969-0.552,2.018-0.831,3.152-0.831c2.544,0,4.242,0.845,5.101,2.531c0.499,0.97,0.747,2.477,0.747,4.521v15.763h-3.48v-15.345
		c0-2.991-1.094-4.481-3.281-4.481c-1.104,0-2.073,0.347-2.902,1.037c-0.994,0.829-1.493,1.976-1.493,3.444v15.345H432.039"/>
	<path fill="#9D9D9C" d="M483.022,408.87v-5.726c-0.5,0.528-1.455,1.011-2.866,1.453c-1.658,0.527-2.685,0.915-3.071,1.163
		c-1.134,0.692-1.695,1.867-1.695,3.528c0,2.544,1.05,3.813,3.148,3.813c1.16,0,2.197-0.422,3.11-1.269
		C482.563,410.996,483.022,410.008,483.022,408.87 M475.761,399.748h-3.483c0-2.544,0.583-4.398,1.762-5.558
		c1.172-1.163,3.073-1.746,5.702-1.746c2.93,0,4.91,0.779,5.933,2.336c0.551,0.859,0.831,2.22,0.831,4.081v12.454
		c0,1.19,0.36,1.786,1.078,1.786c0.354,0,0.633-0.095,0.83-0.287v2.526c-0.83,0.141-1.505,0.209-2.033,0.209
		c-0.942,0-1.604-0.122-1.988-0.379c-0.695-0.392-1.081-1.23-1.168-2.524h-0.079c-0.559,0.969-1.324,1.741-2.305,2.325
		c-0.982,0.578-1.999,0.871-3.05,0.871c-4.034,0-6.052-2.159-6.052-6.47c0-3.265,1.391-5.314,4.188-6.141l4.686-1.409
		c1.163-0.363,1.896-0.79,2.202-1.289c0.219-0.33,0.33-1.021,0.33-2.074c0-2.181-1.193-3.274-3.57-3.274
		c-2.543,0-3.813,1.449-3.813,4.354V399.748z"/>
	<path fill="#9D9D9C" d="M512.801,415.26v-29.615h3.486v9.911c0.446-0.887,1.196-1.625,2.255-2.217
		c1.062-0.596,2.104-0.894,3.136-0.894c2.51,0,4.192,0.845,5.056,2.531c0.472,0.97,0.712,2.477,0.712,4.521v15.763h-3.485v-15.345
		c0-2.991-1.097-4.481-3.281-4.481c-1.098,0-2.068,0.347-2.9,1.037c-0.996,0.829-1.491,1.976-1.491,3.444v15.345H512.801"/>
	<path fill="#9D9D9C" d="M538.023,415.26v-22.231h3.482v22.231H538.023z M538.023,389.625v-3.981h3.482v3.981H538.023z"/>
	<path fill="#9D9D9C" d="M559.014,395.434c-1.521,0-2.604,0.786-3.236,2.359c-0.555,1.36-0.83,3.476-0.83,6.353
		c0,5.415,1.343,8.127,4.023,8.127c1.743,0,2.973-0.784,3.691-2.366c0.556-1.239,0.828-3.161,0.828-5.761
		C563.49,398.34,561.998,395.434,559.014,395.434 M566.771,393.027v20.824c0,6.028-2.521,9.043-7.548,9.043
		c-4.479,0-6.92-1.853-7.303-5.558h3.486c0.164,1.879,1.352,2.819,3.564,2.819c1.937,0,3.221-0.638,3.857-1.909
		c0.308-0.637,0.459-1.659,0.459-3.07v-2.904h-0.085c-0.356,0.911-1.004,1.643-1.927,2.182c-0.933,0.536-1.961,0.806-3.095,0.806
		c-2.791,0-4.741-1.479-5.848-4.438c-0.691-1.795-1.039-4.021-1.039-6.677c0-7.8,2.423-11.701,7.266-11.701
		c1.156,0,2.208,0.348,3.15,1.038c0.857,0.667,1.409,1.451,1.657,2.364h0.08v-2.819H566.771z"/>
	<path fill="#9D9D9C" d="M577.1,415.26v-29.615h3.482v9.911c0.445-0.887,1.196-1.625,2.256-2.217
		c1.062-0.596,2.104-0.894,3.137-0.894c2.507,0,4.191,0.845,5.059,2.531c0.471,0.97,0.705,2.477,0.705,4.521v15.763h-3.482v-15.345
		c0-2.991-1.092-4.481-3.277-4.481c-1.105,0-2.075,0.347-2.9,1.037c-0.999,0.829-1.496,1.976-1.496,3.444v15.345H577.1"/>
	<path fill="#9D9D9C" d="M605.14,401.823h7.925v-1.205c0-3.624-1.286-5.433-3.857-5.433c-1.412,0-2.478,0.646-3.201,1.951
		c-0.575,1.078-0.866,2.36-0.866,3.857V401.823 M616.712,404.56h-11.694c0,2.545,0.177,4.398,0.536,5.559
		c0.608,1.991,1.854,2.983,3.734,2.983c1.442,0,2.49-0.642,3.151-1.947c0.413-0.889,0.625-1.95,0.625-3.191h3.479
		c0,1.74-0.479,3.343-1.452,4.812c-1.352,2.045-3.357,3.068-6.011,3.068c-2.686,0-4.649-0.956-5.887-2.861
		c-1.224-1.827-1.833-4.676-1.833-8.547c0-7.992,2.643-11.989,7.927-11.989c3.013,0,5.1,1.189,6.261,3.569
		c0.779,1.602,1.163,3.982,1.163,7.13V404.56z"/>
	<path fill="#9D9D9C" d="M626.335,415.26v-22.231h3.487v3.317c1.234-2.6,2.858-3.9,4.869-3.9c0.701,0,1.226,0.086,1.56,0.248v3.404
		c-0.882-0.114-1.507-0.166-1.867-0.166c-1.049,0-2.038,0.414-2.943,1.243c-1.081,1.023-1.618,2.366-1.618,4.024v14.061H626.335"/>
	<rect x="660.395" y="385.644" fill="#9D9D9C" width="3.482" height="29.616"/>
	<path fill="#9D9D9C" d="M677.482,401.823h7.922v-1.205c0-3.624-1.284-5.433-3.856-5.433c-1.411,0-2.475,0.646-3.191,1.951
		c-0.586,1.078-0.874,2.36-0.874,3.857V401.823 M689.059,404.56h-11.697c0,2.545,0.178,4.398,0.539,5.559
		c0.604,1.991,1.849,2.983,3.727,2.983c1.441,0,2.493-0.642,3.158-1.947c0.414-0.889,0.619-1.95,0.619-3.191h3.488
		c0,1.74-0.485,3.343-1.452,4.812c-1.356,2.045-3.364,3.068-6.021,3.068c-2.68,0-4.646-0.956-5.886-2.861
		c-1.221-1.827-1.828-4.676-1.828-8.547c0-7.992,2.637-11.989,7.921-11.989c3.02,0,5.106,1.189,6.267,3.569
		c0.776,1.602,1.165,3.982,1.165,7.13V404.56z"/>
	<polyline fill="#9D9D9C" points="702.83,415.26 696.813,393.028 700.63,393.028 704.774,410.865 704.858,410.865 709.01,393.028 
		712.826,393.028 706.811,415.26 702.83,415.26 	"/>
	<path fill="#9D9D9C" d="M724.357,401.823h7.923v-1.205c0-3.624-1.288-5.433-3.857-5.433c-1.407,0-2.478,0.646-3.196,1.951
		c-0.579,1.078-0.869,2.36-0.869,3.857V401.823 M735.931,404.56h-11.697c0,2.545,0.179,4.398,0.539,5.559
		c0.608,1.991,1.85,2.983,3.732,2.983c1.437,0,2.487-0.642,3.153-1.947c0.413-0.889,0.622-1.95,0.622-3.191h3.484
		c0,1.74-0.487,3.343-1.453,4.812c-1.358,2.045-3.357,3.068-6.014,3.068c-2.683,0-4.646-0.956-5.892-2.861
		c-1.215-1.827-1.82-4.676-1.82-8.547c0-7.992,2.638-11.989,7.919-11.989c3.015,0,5.103,1.189,6.264,3.569
		c0.779,1.602,1.162,3.982,1.162,7.13V404.56z"/>
	<rect x="745.758" y="385.644" fill="#9D9D9C" width="3.486" height="29.616"/>
</g>
</svg>
